<svg width="162" height="40" viewBox="0 0 162 40" fill="none" xmlns="http://www.w3.org/2000/svg">
<path d="M17.083 14.5409C20.211 7.0849 30.9595 5.11393 36.5339 11.0321C42.161 16.2682 40.6964 26.5507 33.8785 30.0175C34.5195 25.823 33.1039 21.4901 30.2675 18.5284C27.0201 14.9968 21.7635 13.4116 17.083 14.5391V14.5409ZM32.231 27.9904C32.2346 23.3944 29.6247 19.2842 25.6027 17.2571C27.3732 26.4333 18.5056 35.1062 9.30092 33.0704C11.2487 37.1999 15.3408 39.9407 20.0757 39.9967C26.6847 40.1563 32.3206 34.5065 32.2293 27.9904H32.231ZM17.601 25.5127C10.028 24.2027 4.81008 16.1804 6.76827 8.68942C-0.562455 11.8667 -2.3574 22.6369 3.46117 28.0149C8.70027 33.5648 18.7146 32.2428 22.3484 25.5898C20.8063 25.8371 19.1274 25.8055 17.6028 25.5127H17.601ZM8.17511 11.9545C8.17511 16.447 10.6603 20.4731 14.5382 22.551C12.1742 13.2118 21.1365 3.8987 30.6293 5.96619C24.5666 -4.59883 8.14879 -0.22025 8.17511 11.9561V11.9545Z" fill="#4338CA"/>
<path d="M49.288 14.2H56.288V15.614H50.94V18.372H55.728V19.772H50.94V22.586H56.456V24H49.288V14.2ZM57.5655 16.566H59.4135L61.0795 19.17L62.7735 16.566H64.5375L62.1435 20.192L64.7055 24H62.8575L61.0795 21.214L59.1755 24H57.3835L60.0155 20.192L57.5655 16.566ZM70.4135 16.51C71.1228 16.51 71.7435 16.6687 72.2755 16.986C72.8075 17.3033 73.2228 17.7467 73.5215 18.316C73.8201 18.8853 73.9695 19.548 73.9695 20.304C73.9695 21.0413 73.8201 21.6947 73.5215 22.264C73.2321 22.824 72.8215 23.2627 72.2895 23.58C71.7668 23.8973 71.1508 24.056 70.4415 24.056C69.7601 24.056 69.1768 23.9067 68.6915 23.608C68.2155 23.3093 67.8515 22.88 67.5995 22.32C67.3475 21.7507 67.2215 21.0787 67.2215 20.304C67.2215 19.5013 67.3475 18.82 67.5995 18.26C67.8515 17.6907 68.2155 17.2567 68.6915 16.958C69.1768 16.6593 69.7508 16.51 70.4135 16.51ZM70.0775 17.784C69.6388 17.784 69.2468 17.8913 68.9015 18.106C68.5561 18.3207 68.2855 18.6147 68.0895 18.988C67.9028 19.352 67.8095 19.7767 67.8095 20.262C67.8095 20.7473 67.9028 21.1813 68.0895 21.564C68.2855 21.9373 68.5561 22.2313 68.9015 22.446C69.2468 22.6513 69.6388 22.754 70.0775 22.754C70.5255 22.754 70.9175 22.6467 71.2535 22.432C71.5988 22.2173 71.8648 21.9233 72.0515 21.55C72.2475 21.1767 72.3455 20.7473 72.3455 20.262C72.3455 19.786 72.2475 19.3613 72.0515 18.988C71.8648 18.6147 71.5988 18.3207 71.2535 18.106C70.9175 17.8913 70.5255 17.784 70.0775 17.784ZM66.1995 16.566H67.8095V26.716H66.1995V16.566ZM80.7971 19.744C80.7784 19.324 80.6804 18.9693 80.5031 18.68C80.3351 18.3813 80.0971 18.1527 79.7891 17.994C79.4811 17.826 79.1264 17.742 78.7251 17.742C78.2771 17.742 77.8851 17.8447 77.5491 18.05C77.2224 18.2553 76.9657 18.5447 76.7791 18.918C76.5924 19.282 76.4991 19.7113 76.4991 20.206C76.4991 20.738 76.5971 21.2 76.7931 21.592C76.9984 21.984 77.2784 22.2873 77.6331 22.502C77.9971 22.7167 78.4124 22.824 78.8791 22.824C79.7097 22.824 80.4097 22.53 80.9791 21.942L81.8331 22.796C81.4691 23.1973 81.0257 23.51 80.5031 23.734C79.9804 23.9487 79.3971 24.056 78.7531 24.056C77.9877 24.056 77.3204 23.8973 76.7511 23.58C76.1817 23.2627 75.7384 22.824 75.4211 22.264C75.1037 21.6947 74.9451 21.0367 74.9451 20.29C74.9451 19.5433 75.1037 18.89 75.4211 18.33C75.7384 17.7607 76.1817 17.3173 76.7511 17C77.3204 16.6827 77.9737 16.5193 78.7111 16.51C79.5884 16.51 80.2931 16.692 80.8251 17.056C81.3571 17.4107 81.7351 17.9147 81.9591 18.568C82.1831 19.2213 82.2624 19.996 82.1971 20.892H76.2471V19.744H80.7971ZM89.3915 19.8C89.3915 19.2213 89.2329 18.7687 88.9155 18.442C88.5982 18.106 88.1595 17.938 87.5995 17.938C86.9369 17.9473 86.4142 18.1807 86.0315 18.638C85.6582 19.0953 85.4715 19.6647 85.4715 20.346H85.0235C85.0235 19.422 85.1542 18.68 85.4155 18.12C85.6769 17.56 86.0455 17.154 86.5215 16.902C87.0069 16.6407 87.5762 16.51 88.2295 16.51C88.8082 16.51 89.3029 16.6267 89.7135 16.86C90.1335 17.0933 90.4509 17.4247 90.6655 17.854C90.8895 18.274 91.0015 18.7827 91.0015 19.38V24H89.3915V19.8ZM83.8755 16.566H85.4855V24H83.8755V16.566ZM97.4008 18.372C97.0741 18.176 96.7148 18.022 96.3228 17.91C95.9401 17.7887 95.5854 17.728 95.2588 17.728C94.9414 17.728 94.6801 17.7887 94.4748 17.91C94.2694 18.0313 94.1668 18.232 94.1668 18.512C94.1668 18.7453 94.2601 18.932 94.4468 19.072C94.6428 19.2027 94.8901 19.3147 95.1888 19.408C95.4874 19.5013 95.8048 19.5993 96.1408 19.702C96.4768 19.8047 96.7941 19.94 97.0928 20.108C97.4008 20.2667 97.6481 20.486 97.8348 20.766C98.0214 21.046 98.1148 21.4147 98.1148 21.872C98.1148 22.376 97.9794 22.7913 97.7088 23.118C97.4474 23.4353 97.0974 23.6733 96.6588 23.832C96.2294 23.9813 95.7628 24.056 95.2588 24.056C94.7174 24.056 94.1761 23.9673 93.6348 23.79C93.0934 23.6127 92.6361 23.356 92.2628 23.02L92.8368 21.928C93.1634 22.2173 93.5601 22.446 94.0267 22.614C94.4934 22.7727 94.9274 22.852 95.3288 22.852C95.5621 22.852 95.7674 22.824 95.9448 22.768C96.1314 22.7027 96.2761 22.6093 96.3788 22.488C96.4908 22.3667 96.5468 22.208 96.5468 22.012C96.5468 21.7507 96.4534 21.5453 96.2668 21.396C96.0801 21.2467 95.8374 21.1253 95.5388 21.032C95.2401 20.9293 94.9228 20.8313 94.5868 20.738C94.2508 20.6353 93.9334 20.5047 93.6348 20.346C93.3454 20.1873 93.1074 19.9727 92.9208 19.702C92.7341 19.4313 92.6408 19.072 92.6408 18.624C92.6408 18.12 92.7714 17.714 93.0328 17.406C93.2941 17.0887 93.6301 16.86 94.0408 16.72C94.4608 16.5707 94.9088 16.496 95.3848 16.496C95.8514 16.496 96.3181 16.5613 96.7848 16.692C97.2514 16.8227 97.6528 17.0047 97.9888 17.238L97.4008 18.372ZM104.887 19.744C104.868 19.324 104.77 18.9693 104.593 18.68C104.425 18.3813 104.187 18.1527 103.879 17.994C103.571 17.826 103.216 17.742 102.815 17.742C102.367 17.742 101.975 17.8447 101.639 18.05C101.312 18.2553 101.056 18.5447 100.869 18.918C100.682 19.282 100.589 19.7113 100.589 20.206C100.589 20.738 100.687 21.2 100.883 21.592C101.088 21.984 101.368 22.2873 101.723 22.502C102.087 22.7167 102.502 22.824 102.969 22.824C103.8 22.824 104.5 22.53 105.069 21.942L105.923 22.796C105.559 23.1973 105.116 23.51 104.593 23.734C104.07 23.9487 103.487 24.056 102.843 24.056C102.078 24.056 101.41 23.8973 100.841 23.58C100.272 23.2627 99.8283 22.824 99.5109 22.264C99.1936 21.6947 99.0349 21.0367 99.0349 20.29C99.0349 19.5433 99.1936 18.89 99.5109 18.33C99.8283 17.7607 100.272 17.3173 100.841 17C101.41 16.6827 102.064 16.5193 102.801 16.51C103.678 16.51 104.383 16.692 104.915 17.056C105.447 17.4107 105.825 17.9147 106.049 18.568C106.273 19.2213 106.352 19.996 106.287 20.892H100.337V19.744H104.887ZM110.675 14.2H118.529V15.614H115.421V24H113.769V15.614H110.675V14.2ZM123.499 17.966C122.967 17.938 122.505 18.0313 122.113 18.246C121.73 18.4513 121.432 18.7407 121.217 19.114C121.012 19.4873 120.909 19.9167 120.909 20.402L120.461 20.346C120.461 19.5153 120.582 18.8153 120.825 18.246C121.068 17.6767 121.418 17.2473 121.875 16.958C122.332 16.6593 122.874 16.51 123.499 16.51V17.966ZM119.313 16.566H120.923V24H119.313V16.566ZM126.958 20.682C126.435 20.682 126.048 20.7613 125.796 20.92C125.544 21.0787 125.418 21.34 125.418 21.704C125.418 22.0493 125.544 22.3247 125.796 22.53C126.057 22.7353 126.412 22.838 126.86 22.838C127.261 22.838 127.621 22.768 127.938 22.628C128.255 22.488 128.507 22.3013 128.694 22.068C128.881 21.8253 128.979 21.5547 128.988 21.256L129.296 22.614C129.063 23.0993 128.708 23.4633 128.232 23.706C127.756 23.9487 127.187 24.07 126.524 24.07C125.992 24.07 125.53 23.9673 125.138 23.762C124.746 23.5567 124.443 23.2813 124.228 22.936C124.013 22.5813 123.906 22.1893 123.906 21.76C123.906 21.088 124.149 20.5513 124.634 20.15C125.129 19.7487 125.824 19.5433 126.72 19.534H129.184V20.682H126.958ZM128.974 19.282C128.974 18.7967 128.825 18.4187 128.526 18.148C128.227 17.8773 127.784 17.742 127.196 17.742C126.841 17.742 126.477 17.8073 126.104 17.938C125.74 18.0687 125.371 18.26 124.998 18.512L124.34 17.476C124.685 17.2613 125.012 17.084 125.32 16.944C125.628 16.804 125.955 16.6967 126.3 16.622C126.655 16.5473 127.07 16.51 127.546 16.51C128.507 16.51 129.245 16.7433 129.758 17.21C130.281 17.6673 130.547 18.302 130.556 19.114L130.57 24H128.988L128.974 19.282ZM137.975 18.694C137.714 18.4233 137.406 18.2133 137.051 18.064C136.696 17.9147 136.295 17.84 135.847 17.84C135.418 17.84 135.035 17.9427 134.699 18.148C134.363 18.3533 134.102 18.6427 133.915 19.016C133.728 19.38 133.635 19.8047 133.635 20.29C133.635 20.7753 133.728 21.2047 133.915 21.578C134.102 21.942 134.363 22.2313 134.699 22.446C135.035 22.6513 135.418 22.754 135.847 22.754C136.314 22.754 136.734 22.6793 137.107 22.53C137.48 22.3713 137.793 22.1427 138.045 21.844L138.941 22.726C138.605 23.146 138.166 23.4727 137.625 23.706C137.093 23.9393 136.477 24.056 135.777 24.056C135.04 24.056 134.386 23.8973 133.817 23.58C133.257 23.2627 132.818 22.824 132.501 22.264C132.184 21.6947 132.025 21.0367 132.025 20.29C132.025 19.5433 132.184 18.89 132.501 18.33C132.818 17.7607 133.257 17.3173 133.817 17C134.386 16.6733 135.04 16.51 135.777 16.51C136.449 16.51 137.042 16.6127 137.555 16.818C138.078 17.014 138.512 17.294 138.857 17.658L137.975 18.694ZM140.698 13.612H142.308V24H140.698V13.612ZM145.598 16.566H147.446L142.182 22.026V20.108L145.598 16.566ZM144.534 19.212L147.656 24H145.752L143.344 20.178L144.534 19.212ZM153.75 19.744C153.732 19.324 153.634 18.9693 153.456 18.68C153.288 18.3813 153.05 18.1527 152.742 17.994C152.434 17.826 152.08 17.742 151.678 17.742C151.23 17.742 150.838 17.8447 150.502 18.05C150.176 18.2553 149.919 18.5447 149.732 18.918C149.546 19.282 149.452 19.7113 149.452 20.206C149.452 20.738 149.55 21.2 149.746 21.592C149.952 21.984 150.232 22.2873 150.586 22.502C150.95 22.7167 151.366 22.824 151.832 22.824C152.663 22.824 153.363 22.53 153.932 21.942L154.786 22.796C154.422 23.1973 153.979 23.51 153.456 23.734C152.934 23.9487 152.35 24.056 151.706 24.056C150.941 24.056 150.274 23.8973 149.704 23.58C149.135 23.2627 148.692 22.824 148.374 22.264C148.057 21.6947 147.898 21.0367 147.898 20.29C147.898 19.5433 148.057 18.89 148.374 18.33C148.692 17.7607 149.135 17.3173 149.704 17C150.274 16.6827 150.927 16.5193 151.664 16.51C152.542 16.51 153.246 16.692 153.778 17.056C154.31 17.4107 154.688 17.9147 154.912 18.568C155.136 19.2213 155.216 19.996 155.15 20.892H149.2V19.744H153.75ZM161.015 17.966C160.483 17.938 160.021 18.0313 159.629 18.246C159.246 18.4513 158.947 18.7407 158.733 19.114C158.527 19.4873 158.425 19.9167 158.425 20.402L157.977 20.346C157.977 19.5153 158.098 18.8153 158.341 18.246C158.583 17.6767 158.933 17.2473 159.391 16.958C159.848 16.6593 160.389 16.51 161.015 16.51V17.966ZM156.829 16.566H158.439V24H156.829V16.566Z" fill="#4338CA"/>
</svg>
